#Comment line ignore any data following # character 
#Hierarchical Translation and Rotation (.htr) file 
[Header]	
#Header keywords are followed by a single value 
FileType HTR		#Single word string
DataType HTRS		#Translation followed by rotation and scale data
FileVersion 1		#integer
NumSegments 84		#integer
NumFrames 2		#integer
DataFrameRate 30		#integer, data frame rate in this file
EulerRotationOrder ZYX
CalibrationUnits mm
RotationUnits Degrees
GlobalAxisofGravity Y
BoneLengthAxis Y
ScaleFactor 1.00
[SegmentNames&Hierarchy]
#CHILD	PARENT
MASTER GLOBAL
root MASTER
chest root
L_mid_tent01 root
R_mid_tent01 root
spine01 root
Bip01_Neck chest
L_humerus chest
R_humerus chest
weapon_bone chest
Bip01_Head Bip01_Neck
eye_left_bone Bip01_Head
eye_right_bone Bip01_Head
L_forearm L_humerus
L_front_hand L_forearm
L_weapon_bone L_forearm
L_front_hand01_01 L_front_hand
L_front_hand02_01 L_front_hand
L_front_hand03_01 L_front_hand
L_front_hand01_02 L_front_hand01_01
L_front_hand02_02 L_front_hand02_01
L_front_hand03_02 L_front_hand03_01
R_forearm R_humerus
R_front_hand R_forearm
R_weapon_bone R_forearm
R_front_hand01_01 R_front_hand
R_front_hand02_01 R_front_hand
R_front_hand03_01 R_front_hand
R_front_hand01_02 R_front_hand01_01
R_front_hand02_02 R_front_hand02_01
R_front_hand03_02 R_front_hand03_01
null_rope01_connect L_mid_tent01
Rope1_Seg01 null_rope01_connect
Rope1_Seg02 Rope1_Seg01
Rope1_Seg03 Rope1_Seg02
Rope1_Seg04 Rope1_Seg03
Rope1_Seg05 Rope1_Seg04
Rope1_Seg06 Rope1_Seg05
Rope1_Seg07 Rope1_Seg06
Rope1_Seg09 Rope1_Seg07
L_mid_hand01 Rope1_Seg09
L_mid_hand02 Rope1_Seg09
L_mid_hand03 Rope1_Seg09
null_rope02_connect R_mid_tent01
Rope2_Seg01 null_rope02_connect
Rope2_Seg02 Rope2_Seg01
Rope2_Seg03 Rope2_Seg02
Rope2_Seg04 Rope2_Seg03
Rope2_Seg05 Rope2_Seg04
Rope2_Seg06 Rope2_Seg05
Rope2_Seg07 Rope2_Seg06
Rope2_Seg09 Rope2_Seg07
R_mid_hand01 Rope2_Seg09
R_mid_hand02 Rope2_Seg09
R_mid_hand03 Rope2_Seg09
spine02 spine01
spine03 spine02
pelvis spine03
null_rope03_connect pelvis
null_rope04_connect pelvis
Rope3_Seg01 null_rope03_connect
Rope3_Seg02 Rope3_Seg01
Rope3_Seg03 Rope3_Seg02
Rope3_Seg04 Rope3_Seg03
Rope3_Seg05 Rope3_Seg04
Rope3_Seg06 Rope3_Seg05
Rope3_Seg07 Rope3_Seg06
Rope3_Seg08 Rope3_Seg07
Rope3_Seg09 Rope3_Seg08
R_rear_hand01 Rope3_Seg09
R_rear_hand02 Rope3_Seg09
R_rear_hand03 Rope3_Seg09
Rope4_Seg01 null_rope04_connect
Rope4_Seg02 Rope4_Seg01
Rope4_Seg03 Rope4_Seg02
Rope4_Seg04 Rope4_Seg03
Rope4_Seg05 Rope4_Seg04
Rope4_Seg06 Rope4_Seg05
Rope4_Seg07 Rope4_Seg06
Rope4_Seg08 Rope4_Seg07
Rope4_Seg09 Rope4_Seg08
L_rear_hand01 Rope4_Seg09
L_rear_hand02 Rope4_Seg09
L_rear_hand03 Rope4_Seg09
[BasePosition]
#SegmentName Tx, Ty, Tz, Rx, Ry, Rz, BoneLength
MASTER 0.000000 0.000000 0.000000 -90.000000 0.000000 0.000000 10.000000 
root 0.000000 0.000000 0.000000 0.000000 0.000000 0.000000 10.000000 
chest 0.000000 0.000000 0.000000 0.000000 0.000000 0.000000 10.000000 
L_mid_tent01 0.000000 0.000000 0.000000 0.000000 0.000000 0.000000 10.000000 
R_mid_tent01 0.000000 0.000000 0.000000 0.000000 0.000000 0.000000 10.000000 
spine01 0.000000 0.000000 0.000000 0.000000 0.000000 0.000000 10.000000 
Bip01_Neck 0.000000 0.000000 0.000000 0.000000 0.000000 0.000000 10.000000 
L_humerus 0.000000 0.000000 0.000000 0.000000 0.000000 0.000000 10.000000 
R_humerus 0.000000 0.000000 0.000000 0.000000 0.000000 0.000000 10.000000 
weapon_bone 0.000000 0.000000 0.000000 0.000000 0.000000 0.000000 10.000000 
Bip01_Head 0.000000 0.000000 0.000000 0.000000 0.000000 0.000000 10.000000 
eye_left_bone 0.000000 0.000000 0.000000 0.000000 0.000000 0.000000 10.000000 
eye_right_bone 0.000000 0.000000 0.000000 0.000000 0.000000 0.000000 10.000000 
L_forearm 0.000000 0.000000 0.000000 0.000000 0.000000 0.000000 10.000000 
L_front_hand 0.000000 0.000000 0.000000 0.000000 0.000000 0.000000 10.000000 
L_weapon_bone 0.000000 0.000000 0.000000 0.000000 0.000000 0.000000 10.000000 
L_front_hand01_01 0.000000 0.000000 0.000000 0.000000 0.000000 0.000000 10.000000 
L_front_hand02_01 0.000000 0.000000 0.000000 0.000000 0.000000 0.000000 10.000000 
L_front_hand03_01 0.000000 0.000000 0.000000 0.000000 0.000000 0.000000 10.000000 
L_front_hand01_02 0.000000 0.000000 0.000000 0.000000 0.000000 0.000000 10.000000 
L_front_hand02_02 0.000000 0.000000 0.000000 0.000000 0.000000 0.000000 10.000000 
L_front_hand03_02 0.000000 0.000000 0.000000 0.000000 0.000000 0.000000 10.000000 
R_forearm 0.000000 0.000000 0.000000 0.000000 0.000000 0.000000 10.000000 
R_front_hand 0.000000 0.000000 0.000000 0.000000 0.000000 0.000000 10.000000 
R_weapon_bone 0.000000 0.000000 0.000000 0.000000 0.000000 0.000000 10.000000 
R_front_hand01_01 0.000000 0.000000 0.000000 0.000000 0.000000 0.000000 10.000000 
R_front_hand02_01 0.000000 0.000000 0.000000 0.000000 0.000000 0.000000 10.000000 
R_front_hand03_01 0.000000 0.000000 0.000000 0.000000 0.000000 0.000000 10.000000 
R_front_hand01_02 0.000000 0.000000 0.000000 0.000000 0.000000 0.000000 10.000000 
R_front_hand02_02 0.000000 0.000000 0.000000 0.000000 0.000000 0.000000 10.000000 
R_front_hand03_02 0.000000 0.000000 0.000000 0.000000 0.000000 0.000000 10.000000 
null_rope01_connect 0.000000 0.000000 0.000000 0.000000 0.000000 0.000000 10.000000 
Rope1_Seg01 0.000000 0.000000 0.000000 0.000000 0.000000 0.000000 10.000000 
Rope1_Seg02 0.000000 0.000000 0.000000 0.000000 0.000000 0.000000 10.000000 
Rope1_Seg03 0.000000 0.000000 0.000000 0.000000 0.000000 0.000000 10.000000 
Rope1_Seg04 0.000000 0.000000 0.000000 0.000000 0.000000 0.000000 10.000000 
Rope1_Seg05 0.000000 0.000000 0.000000 0.000000 0.000000 0.000000 10.000000 
Rope1_Seg06 0.000000 0.000000 0.000000 0.000000 0.000000 0.000000 10.000000 
Rope1_Seg07 0.000000 0.000000 0.000000 0.000000 0.000000 0.000000 10.000000 
Rope1_Seg09 0.000000 0.000000 0.000000 0.000000 0.000000 0.000000 10.000000 
L_mid_hand01 0.000000 0.000000 0.000000 0.000000 0.000000 0.000000 10.000000 
L_mid_hand02 0.000000 0.000000 0.000000 0.000000 0.000000 0.000000 10.000000 
L_mid_hand03 0.000000 0.000000 0.000000 0.000000 0.000000 0.000000 10.000000 
null_rope02_connect 0.000000 0.000000 0.000000 0.000000 0.000000 0.000000 10.000000 
Rope2_Seg01 0.000000 0.000000 0.000000 0.000000 0.000000 0.000000 10.000000 
Rope2_Seg02 0.000000 0.000000 0.000000 0.000000 0.000000 0.000000 10.000000 
Rope2_Seg03 0.000000 0.000000 0.000000 0.000000 0.000000 0.000000 10.000000 
Rope2_Seg04 0.000000 0.000000 0.000000 0.000000 0.000000 0.000000 10.000000 
Rope2_Seg05 0.000000 0.000000 0.000000 0.000000 0.000000 0.000000 10.000000 
Rope2_Seg06 0.000000 0.000000 0.000000 0.000000 0.000000 0.000000 10.000000 
Rope2_Seg07 0.000000 0.000000 0.000000 0.000000 0.000000 0.000000 10.000000 
Rope2_Seg09 0.000000 0.000000 0.000000 0.000000 0.000000 0.000000 10.000000 
R_mid_hand01 0.000000 0.000000 0.000000 0.000000 0.000000 0.000000 10.000000 
R_mid_hand02 0.000000 0.000000 0.000000 0.000000 0.000000 0.000000 10.000000 
R_mid_hand03 0.000000 0.000000 0.000000 0.000000 0.000000 0.000000 10.000000 
spine02 0.000000 0.000000 0.000000 0.000000 0.000000 0.000000 10.000000 
spine03 0.000000 0.000000 0.000000 0.000000 0.000000 0.000000 10.000000 
pelvis 0.000000 0.000000 0.000000 0.000000 0.000000 0.000000 10.000000 
null_rope03_connect 0.000000 0.000000 0.000000 0.000000 0.000000 0.000000 10.000000 
null_rope04_connect 0.000000 0.000000 0.000000 0.000000 0.000000 0.000000 10.000000 
Rope3_Seg01 0.000000 0.000000 0.000000 0.000000 0.000000 0.000000 10.000000 
Rope3_Seg02 0.000000 0.000000 0.000000 0.000000 0.000000 0.000000 10.000000 
Rope3_Seg03 0.000000 0.000000 0.000000 0.000000 0.000000 0.000000 10.000000 
Rope3_Seg04 0.000000 0.000000 0.000000 0.000000 0.000000 0.000000 10.000000 
Rope3_Seg05 0.000000 0.000000 0.000000 0.000000 0.000000 0.000000 10.000000 
Rope3_Seg06 0.000000 0.000000 0.000000 0.000000 0.000000 0.000000 10.000000 
Rope3_Seg07 0.000000 0.000000 0.000000 0.000000 0.000000 0.000000 10.000000 
Rope3_Seg08 0.000000 0.000000 0.000000 0.000000 0.000000 0.000000 10.000000 
Rope3_Seg09 0.000000 0.000000 0.000000 0.000000 0.000000 0.000000 10.000000 
R_rear_hand01 0.000000 0.000000 0.000000 0.000000 0.000000 0.000000 10.000000 
R_rear_hand02 0.000000 0.000000 0.000000 0.000000 0.000000 0.000000 10.000000 
R_rear_hand03 0.000000 0.000000 0.000000 0.000000 0.000000 0.000000 10.000000 
Rope4_Seg01 0.000000 0.000000 0.000000 0.000000 0.000000 0.000000 10.000000 
Rope4_Seg02 0.000000 0.000000 0.000000 0.000000 0.000000 0.000000 10.000000 
Rope4_Seg03 0.000000 0.000000 0.000000 0.000000 0.000000 0.000000 10.000000 
Rope4_Seg04 0.000000 0.000000 0.000000 0.000000 0.000000 0.000000 10.000000 
Rope4_Seg05 0.000000 0.000000 0.000000 0.000000 0.000000 0.000000 10.000000 
Rope4_Seg06 0.000000 0.000000 0.000000 0.000000 0.000000 0.000000 10.000000 
Rope4_Seg07 0.000000 0.000000 0.000000 0.000000 0.000000 0.000000 10.000000 
Rope4_Seg08 0.000000 0.000000 0.000000 0.000000 0.000000 0.000000 10.000000 
Rope4_Seg09 0.000000 0.000000 0.000000 0.000000 0.000000 0.000000 10.000000 
L_rear_hand01 0.000000 0.000000 0.000000 0.000000 0.000000 0.000000 10.000000 
L_rear_hand02 0.000000 0.000000 0.000000 0.000000 0.000000 0.000000 10.000000 
L_rear_hand03 0.000000 0.000000 0.000000 0.000000 0.000000 0.000000 10.000000 
#Beginning of Data. Separated by tabs
#Fr	Tx	Ty	Tz	Rx	Ry	Rz	SF
[MASTER]
114 -0.000695 4630.484863 0.000000 0.001660 0.001660 0.001660 4630.484863
115 -0.517601 4629.644043 0.000000 0.001660 0.001660 0.001660 4629.644043
[root]
114 1364.103760 35.025330 1477.646484 -60.044113 -13.367747 -93.000618 2011.329102
115 1375.601440 35.025330 1463.314331 -58.033386 -12.549344 -92.353317 2008.679810
[chest]
114 -84.512650 -34.090519 0.000000 -2.295119 -4.984700 172.596542 91.129311
115 -84.512650 -34.090519 0.000000 -2.232333 -4.941767 172.335144 91.129311
[L_mid_tent01]
114 27.326660 22.162027 -250.091431 10.393386 -9.103427 53.664974 252.554199
115 27.319948 22.165895 -250.048035 11.535965 -5.474015 53.739780 252.510849
[R_mid_tent01]
114 23.228794 24.509907 226.238495 -136.277786 -74.491615 28.819502 228.744751
115 23.228794 24.509907 226.238495 -139.352875 -74.291161 31.980438 228.744751
[spine01]
114 -0.361383 -0.195265 0.000000 0.001869 0.001420 15.534141 0.410763
115 -0.361383 -0.195265 0.000000 0.001869 0.001420 15.534141 0.410763
[Bip01_Neck]
114 165.484543 71.581718 0.000119 175.896118 1.177290 24.871183 180.302734
115 165.484543 71.581718 0.000119 175.896118 1.177290 24.871183 180.302734
[L_humerus]
114 -13.983130 -135.272980 -120.471481 175.500610 55.921959 -64.828316 181.680161
115 -13.983130 -135.272980 -120.471481 175.500610 55.921959 -64.828316 181.680161
[R_humerus]
114 -13.983309 -135.273102 125.287651 -178.898193 -46.892124 -62.295071 184.909012
115 -13.983309 -135.273102 125.287651 -178.898193 -46.892124 -62.295071 184.909012
[weapon_bone]
114 235.964890 -300.705902 0.000000 0.000000 -89.951546 -128.212341 382.234833
115 235.964890 -300.705902 0.000000 0.000000 -89.951546 -128.212341 382.234833
[Bip01_Head]
114 185.936478 184.878708 15.312298 30.791538 24.519276 -50.450241 262.653748
115 185.978195 185.014313 15.291342 31.080050 24.591089 -50.226212 262.777466
[eye_left_bone]
114 -24.626970 125.451866 -64.772606 0.000000 -90.000000 -99.840431 143.318359
115 -24.626970 125.451866 -64.772606 0.000000 -90.000000 -99.840431 143.318359
[eye_right_bone]
114 -24.626970 125.451866 64.327362 0.000000 -89.960434 80.159386 143.117676
115 -24.626970 125.451866 64.327362 0.000000 -89.960434 80.159386 143.117676
[L_forearm]
114 322.776093 0.000000 -0.000119 0.000640 0.002258 -58.348751 322.776093
115 322.776093 0.000000 -0.000119 0.000640 0.002258 -58.348751 322.776093
[L_front_hand]
114 241.149185 -0.042021 -3.300071 -178.667953 -1.835447 -27.422350 241.171753
115 241.149185 -0.042021 -3.300071 -178.667953 -1.835447 -27.422350 241.171753
[L_weapon_bone]
114 156.183838 0.000000 0.000000 0.000014 0.000007 0.000001 156.183838
115 156.183838 0.000000 0.000000 0.000014 0.000007 0.000001 156.183838
[L_front_hand01_01]
114 86.095154 20.947098 -0.655860 -0.366594 -0.477154 75.385574 88.609184
115 86.095154 20.947098 -0.655860 -0.366594 -0.477154 75.385574 88.609184
[L_front_hand02_01]
114 86.935165 -11.437475 24.513514 154.403519 -59.888931 -61.371990 91.046425
115 86.935165 -11.437475 24.513514 154.403519 -59.888931 -61.371990 91.046425
[L_front_hand03_01]
114 86.637497 -14.123976 -20.424902 -153.913849 58.118122 -62.702866 90.126129
115 86.637497 -14.123976 -20.424902 -153.913849 58.118130 -62.702866 90.126129
[L_front_hand01_02]
114 71.020905 -0.000179 0.000030 0.000334 -0.002323 -106.379684 71.020905
115 71.020905 -0.000179 0.000030 0.000334 -0.002323 -106.379684 71.020905
[L_front_hand02_02]
114 71.020927 -0.000119 0.000060 0.000334 -0.002323 -106.379684 71.020927
115 71.020927 -0.000119 0.000060 0.000334 -0.002323 -106.379684 71.020927
[L_front_hand03_02]
114 71.020905 -0.000060 0.000060 0.000334 -0.002323 -106.379684 71.020905
115 71.020905 -0.000060 0.000060 0.000334 -0.002323 -106.379684 71.020905
[R_forearm]
114 322.776428 -0.000060 0.000030 0.178801 -0.113338 -58.530384 322.776428
115 322.776428 -0.000060 0.000030 0.178801 -0.113338 -58.530384 322.776428
[R_front_hand]
114 238.847015 -0.006795 2.210259 -1.531694 0.790216 -51.443054 238.857239
115 238.847015 -0.006795 2.210259 -1.531694 0.790216 -51.443054 238.857239
[R_weapon_bone]
114 155.664093 0.002503 -0.000030 0.003487 0.001180 -90.988930 155.664078
115 155.664093 0.002503 -0.000030 0.003487 0.001180 -90.988930 155.664078
[R_front_hand01_01]
114 87.624611 14.231146 22.918642 -154.633499 -59.950619 61.746044 91.683487
115 87.624611 14.231146 22.918642 -154.633484 -59.950619 61.746037 91.683487
[R_front_hand02_01]
114 89.356956 14.367283 -19.491137 154.602661 58.302849 63.744389 92.579636
115 89.356956 14.367283 -19.491137 154.602661 58.302849 63.744389 92.579636
[R_front_hand03_01]
114 87.286232 -22.307278 -0.143439 0.162155 -0.423168 -75.767906 90.091743
115 87.286232 -22.307278 -0.143439 0.162155 -0.423168 -75.767921 90.091743
[R_front_hand01_02]
114 71.020905 0.000060 0.000119 0.002323 -0.000334 106.381714 71.020905
115 71.020905 0.000060 0.000119 0.002323 -0.000334 106.381714 71.020905
[R_front_hand02_02]
114 71.020844 -0.000030 -0.000119 0.002323 -0.000334 106.381714 71.020836
115 71.020844 -0.000030 -0.000119 0.002323 -0.000334 106.381714 71.020836
[R_front_hand03_02]
114 71.020905 0.000000 0.000030 0.002323 -0.000334 106.381714 71.020905
115 71.020905 0.000000 0.000030 0.002323 -0.000334 106.381714 71.020905
[null_rope01_connect]
114 328.732483 0.000000 -0.000238 5.784076 -46.893436 43.420437 328.732483
115 328.732483 0.000000 -0.000238 1.227028 -46.560608 46.160622 328.732483
[Rope1_Seg01]
114 4.777232 -0.642511 6.366268 78.494766 -3.933044 -137.691833 7.985244
115 4.646309 -1.116609 6.416623 78.220192 -8.999690 -140.180603 8.000503
[Rope1_Seg02]
114 139.999863 -0.000179 0.000000 -2.925188 16.032347 -18.713552 139.999863
115 139.999863 -0.000179 0.000000 -7.381083 19.813499 -22.861837 139.999863
[Rope1_Seg03]
114 139.999924 0.000060 -0.000060 -177.446274 18.345108 -19.016050 139.999924
115 139.999924 0.000060 -0.000060 -169.294983 20.430506 -17.556902 139.999924
[Rope1_Seg04]
114 139.999924 -0.000060 -0.000119 -0.314032 -10.297618 11.110961 139.999924
115 139.999924 -0.000060 -0.000119 -3.221498 -7.694946 10.875365 139.999924
[Rope1_Seg05]
114 139.999832 0.000119 -0.000060 -6.492664 -4.840176 13.843453 139.999832
115 139.999832 0.000119 -0.000060 -8.042265 -4.330808 15.222600 139.999832
[Rope1_Seg06]
114 139.999954 0.000119 -0.000060 -6.521238 -5.911935 20.350859 139.999954
115 139.999954 0.000119 -0.000060 -6.672379 -6.732300 21.313818 139.999954
[Rope1_Seg07]
114 139.999985 0.000060 0.000000 -1.804844 -5.760523 12.393538 139.999985
115 139.999985 0.000060 0.000000 -1.542072 -5.732197 11.413481 139.999985
[Rope1_Seg09]
114 121.602913 0.000119 -0.000089 -89.793175 -1.359789 0.847147 121.602913
115 121.602913 0.000119 -0.000089 -89.793175 -1.359789 0.847147 121.602913
[L_mid_hand01]
114 103.859421 1.038730 8.195221 116.294914 -23.111713 -31.758034 104.187431
115 103.859421 1.038730 8.195221 116.294914 -23.111713 -31.758034 104.187431
[L_mid_hand02]
114 105.572853 -4.139662 -10.864139 -144.219833 17.447468 -35.360519 106.211075
115 105.572853 -4.139662 -10.864139 -144.219833 17.447468 -35.360519 106.211075
[L_mid_hand03]
114 104.641464 17.579376 -3.913581 -17.830778 17.153101 31.982922 106.179977
115 104.641464 17.579376 -3.913581 -17.830780 17.153103 31.982925 106.179977
[null_rope02_connect]
114 328.732849 0.000179 -0.000119 -148.956650 -16.080107 -22.057760 328.732849
115 328.732849 0.000179 -0.000119 -149.911438 -17.679144 -21.560575 328.732849
[Rope2_Seg01]
114 0.000019 0.000497 0.000115 -35.503635 -1.690668 -3.971426 0.000511
115 0.000018 0.000500 0.000116 -33.404934 -5.311038 -2.229091 0.000514
[Rope2_Seg02]
114 139.999741 -0.000060 -0.000119 23.188604 -0.582209 -20.187975 139.999756
115 139.999741 -0.000060 -0.000119 21.177481 -0.512090 -20.661957 139.999756
[Rope2_Seg03]
114 140.000107 0.000030 0.000000 29.295078 -14.121494 -23.183067 140.000107
115 140.000107 0.000030 0.000000 27.167639 -13.097214 -23.140228 140.000107
[Rope2_Seg04]
114 139.999802 0.000000 -0.000060 14.613878 -12.929116 -14.338080 139.999802
115 139.999802 0.000000 -0.000060 14.494684 -11.189467 -15.102604 139.999802
[Rope2_Seg05]
114 139.999985 -0.000060 0.000119 13.724862 -4.543661 -19.298666 139.999985
115 139.999985 -0.000060 0.000119 14.201858 -3.780941 -19.642443 139.999985
[Rope2_Seg06]
114 139.999893 -0.000030 -0.000119 8.642632 -7.075664 -10.893644 139.999893
115 139.999893 -0.000030 -0.000119 9.099716 -6.725558 -11.015187 139.999893
[Rope2_Seg07]
114 139.999893 0.000060 -0.000060 4.277921 -5.404877 -5.612820 139.999893
115 139.999893 0.000060 -0.000060 4.606966 -5.220789 -5.740207 139.999893
[Rope2_Seg09]
114 121.338966 0.000089 -0.000060 33.793236 -1.359788 -0.847141 121.338966
115 121.338966 0.000089 -0.000060 33.793236 -1.359788 -0.847141 121.338966
[R_mid_hand01]
114 104.680779 11.144459 -10.335981 -41.523792 25.424656 28.595957 105.778534
115 104.680779 11.144459 -10.335981 -41.523792 25.424656 28.595957 105.778534
[R_mid_hand02]
114 104.070427 2.443552 8.231699 72.847389 -32.746803 10.013901 104.424065
115 104.070427 2.443552 8.231699 72.847389 -32.746803 10.013901 104.424065
[R_mid_hand03]
114 106.028137 -11.221827 -5.996406 -167.901306 10.259192 -37.009720 106.788818
115 106.028137 -11.221827 -5.996406 -167.901306 10.259192 -37.009720 106.788818
[spine02]
114 129.756927 0.001550 0.000119 -0.245322 -4.052060 -4.355547 129.756927
115 129.756927 0.001550 0.000119 -0.245322 -4.052060 -4.355547 129.756927
[spine03]
114 78.614326 0.087280 -4.898827 0.369659 4.260734 -4.885720 78.766853
115 78.614326 0.087280 -4.898827 0.369659 4.260734 -4.885720 78.766853
[pelvis]
114 169.435242 0.051022 0.000000 -0.010007 -0.191417 -1.897554 169.435257
115 169.435242 0.051022 0.000000 -0.010007 -0.191417 -1.897554 169.435257
[null_rope03_connect]
114 -1.257226 -2.466202 137.391083 8.175065 -60.151672 91.578796 137.418976
115 -1.257226 -2.466202 137.391083 8.766572 -58.013935 90.046806 137.418976
[null_rope04_connect]
114 -1.259640 -2.480268 -137.844437 8.175065 -60.151672 91.578796 137.872513
115 -1.259640 -2.480268 -137.844437 8.766572 -58.013935 90.046806 137.872513
[Rope3_Seg01]
114 -0.000002 0.000460 -0.000230 -110.397156 54.643566 -44.373501 0.000514
115 -0.000002 0.000464 -0.000232 -113.973473 52.615952 -48.540627 0.000519
[Rope3_Seg02]
114 139.999924 -0.000119 0.000060 -0.391615 3.033706 -3.262103 139.999924
115 139.999924 -0.000119 0.000060 -0.333933 3.174106 -3.179415 139.999924
[Rope3_Seg03]
114 139.999924 -0.000119 0.000119 -1.017956 5.203084 -5.527435 139.999924
115 139.999924 -0.000119 0.000119 -0.875995 5.394149 -5.369148 139.999924
[Rope3_Seg04]
114 139.999924 0.000119 0.000000 -3.539465 10.966950 -11.515344 139.999924
115 139.999924 0.000119 0.000000 -3.078996 11.150656 -11.017102 139.999924
[Rope3_Seg05]
114 139.999924 -0.000238 0.000060 -18.344090 29.937857 -32.163994 139.999924
115 139.999924 -0.000238 0.000060 -16.005730 29.823566 -30.424200 139.999924
[Rope3_Seg06]
114 139.999893 -0.000119 -0.000060 -10.119527 23.454962 -17.180305 139.999893
115 139.999893 -0.000119 -0.000060 -9.047213 23.138485 -17.242214 139.999893
[Rope3_Seg07]
114 139.999771 0.000060 -0.000119 -2.285022 8.392984 -6.115681 139.999771
115 139.999771 0.000060 -0.000119 -1.891746 7.862535 -6.090582 139.999771
[Rope3_Seg08]
114 139.999985 -0.000060 0.000000 -2.456559 9.477859 -6.086667 139.999985
115 139.999985 -0.000060 0.000000 -2.111801 8.854056 -6.118114 139.999985
[Rope3_Seg09]
114 90.185997 -0.000179 -0.000060 89.793228 -1.359877 -0.847183 90.185997
115 90.185997 -0.000179 -0.000060 89.793228 -1.359877 -0.847183 90.185997
[R_rear_hand01]
114 103.366196 -6.073594 -10.757982 -158.627975 33.644127 -23.327253 104.101845
115 103.366196 -6.073594 -10.757982 -158.627975 33.644127 -23.327253 104.101845
[R_rear_hand02]
114 100.509819 12.039542 -7.992327 -36.327797 26.496241 23.332451 101.543350
115 100.509819 12.039542 -7.992327 -36.327797 26.496241 23.332451 101.543350
[R_rear_hand03]
114 101.539970 5.215704 5.435467 73.054977 -27.152536 27.950705 101.819031
115 101.539970 5.215704 5.435467 73.054977 -27.152536 27.950705 101.819031
[Rope4_Seg01]
114 -0.000024 0.000009 0.000038 -9.183317 20.021482 179.119446 0.000046
115 -0.000024 0.000009 0.000037 -5.224485 17.641680 -178.959274 0.000045
[Rope4_Seg02]
114 139.999985 0.000060 0.000119 12.922114 -13.682382 0.695572 139.999985
115 139.999985 0.000060 0.000119 14.900632 -13.578008 1.573254 139.999985
[Rope4_Seg03]
114 139.999924 0.000000 -0.000238 51.720215 -21.280712 6.452526 139.999924
115 139.999924 0.000000 -0.000238 50.290577 -19.830709 8.307215 139.999924
[Rope4_Seg04]
114 139.999985 0.000000 0.000119 43.009823 -6.468865 22.993511 139.999985
115 139.999985 0.000000 0.000119 37.568363 -4.276903 22.263855 139.999985
[Rope4_Seg05]
114 139.999802 -0.000060 -0.000119 13.213666 5.583930 15.565039 139.999802
115 139.999802 -0.000060 -0.000119 13.035172 5.053541 15.519792 139.999802
[Rope4_Seg06]
114 139.999924 0.000000 0.000060 12.362666 8.935135 23.672516 139.999924
115 139.999924 0.000000 0.000060 12.330153 7.733385 23.440039 139.999924
[Rope4_Seg07]
114 139.999802 0.000000 0.000000 5.919950 13.671179 23.144833 139.999802
115 139.999802 0.000000 0.000000 5.851567 12.178234 22.421391 139.999802
[Rope4_Seg08]
114 139.999924 0.000000 0.000119 -1.272773 7.416688 10.018455 139.999924
115 139.999924 0.000000 0.000119 -1.107894 6.898722 9.951573 139.999924
[Rope4_Seg09]
114 90.185791 0.000060 0.000060 -135.617828 2.228885 0.850567 90.185791
115 90.185791 0.000060 0.000060 -135.617828 2.228885 0.850567 90.185791
[L_rear_hand01]
114 101.696655 -8.392275 -7.654577 -33.685818 -15.212530 149.017090 102.329041
115 101.696655 -8.392275 -7.654577 -33.685818 -15.212530 149.017090 102.329041
[L_rear_hand02]
114 102.726799 -1.568258 5.773216 83.407906 30.330435 172.796509 102.900848
115 102.726799 -1.568258 5.773216 83.407906 30.330435 172.796509 102.900848
[L_rear_hand03]
114 104.552910 9.721220 -10.420293 -160.801239 -15.606593 -150.211823 105.519653
115 104.552910 9.721220 -10.420293 -160.801239 -15.606593 -150.211823 105.519653
